<?xml version="1.0" encoding="utf-8"?>
<!-- Generator: Adobe Illustrator 18.1.0, SVG Export Plug-In . SVG Version: 6.00 Build 0)  -->
<svg version="1.1" id="Layer_1" xmlns="http://www.w3.org/2000/svg" xmlns:xlink="http://www.w3.org/1999/xlink" x="0px" y="0px"
	 viewBox="0 0 612 792" enable-background="new 0 0 612 792" xml:space="preserve">
<path id="LAYERS_2_" fill-rule="evenodd" clip-rule="evenodd" fill="#010101" d="M336.1,398.8L336.1,398.8l-29,12c0,0,0,0,0,0l0,0
	l0,0c-0.4,0.1-0.7,0.2-1.1,0.2c-0.4,0-0.8-0.1-1.1-0.2l0,0l0,0c0,0,0,0,0,0l-29-12l0,0c-1.1-0.5-1.9-1.5-1.9-2.8c0-1.7,1.3-3,3-3
	c0.4,0,0.8,0.1,1.1,0.2l0,0l0,0c0,0,0,0,0,0l27.8,11.5l27.8-11.5c0,0,0,0,0,0l0,0l0,0c0.4-0.1,0.7-0.2,1.1-0.2c1.7,0,3,1.3,3,3
	C338,397.3,337.2,398.3,336.1,398.8z M336.1,385.8L336.1,385.8l-29,12c0,0,0,0,0,0l0,0l0,0c-0.4,0.1-0.7,0.2-1.1,0.2
	c-0.4,0-0.8-0.1-1.1-0.2l0,0l0,0c0,0,0,0,0,0l-29-12l0,0c-1.1-0.5-1.9-1.5-1.9-2.8c0-1.3,0.8-2.3,1.9-2.8l0,0l29-12c0,0,0,0,0,0l0,0
	l0,0c0.4-0.1,0.7-0.2,1.1-0.2c0.4,0,0.8,0.1,1.1,0.2l0,0l0,0c0,0,0,0,0,0l29,12l0,0c1.1,0.5,1.9,1.5,1.9,2.8
	C338,384.3,337.2,385.3,336.1,385.8z M277,406c0.4,0,0.8,0.1,1.1,0.2l0,0l0,0c0,0,0,0,0,0l27.8,11.5l27.8-11.5c0,0,0,0,0,0l0,0l0,0
	c0.4-0.1,0.7-0.2,1.1-0.2c1.7,0,3,1.3,3,3c0,1.3-0.8,2.3-1.9,2.8l0,0l-29,12c0,0,0,0,0,0l0,0l0,0c-0.4,0.1-0.7,0.2-1.1,0.2
	c-0.4,0-0.8-0.1-1.1-0.2l0,0l0,0c0,0,0,0,0,0l-29-12l0,0c-1.1-0.5-1.9-1.5-1.9-2.8C274,407.3,275.3,406,277,406z"/>
</svg>
