<?xml version="1.0" encoding="utf-8"?>
<!-- Generator: Adobe Illustrator 18.1.0, SVG Export Plug-In . SVG Version: 6.00 Build 0)  -->
<!DOCTYPE svg PUBLIC "-//W3C//DTD SVG 1.1//EN" "http://www.w3.org/Graphics/SVG/1.1/DTD/svg11.dtd">
<svg version="1.1" id="Layer_1" xmlns="http://www.w3.org/2000/svg" xmlns:xlink="http://www.w3.org/1999/xlink" x="0px" y="0px"
	 width="1280px" height="800px" viewBox="0 0 1280 800" enable-background="new 0 0 1280 800" xml:space="preserve">
<path fill="#FFFFFF" d="M590.282,402.421c0,0.516-0.109,0.992-0.328,1.429c-0.218,0.438-0.523,0.809-0.913,1.113
	c-0.39,0.304-0.854,0.543-1.392,0.714c-0.538,0.171-1.127,0.257-1.767,0.257c-0.765,0-1.451-0.104-2.06-0.314
	c-0.607-0.21-1.215-0.557-1.824-1.039l1.006-1.635c0.483,0.404,0.92,0.701,1.31,0.888c0.39,0.188,0.788,0.28,1.193,0.28
	c0.499,0,0.9-0.128,1.205-0.386c0.305-0.258,0.456-0.605,0.456-1.042c0-0.188-0.027-0.364-0.082-0.527
	c-0.054-0.164-0.156-0.332-0.304-0.504c-0.148-0.171-0.35-0.358-0.607-0.562c-0.257-0.203-0.588-0.453-0.993-0.749
	c-0.312-0.218-0.616-0.445-0.911-0.679c-0.296-0.235-0.565-0.484-0.806-0.75c-0.242-0.265-0.437-0.562-0.585-0.889
	c-0.148-0.329-0.222-0.703-0.222-1.124c0-0.483,0.101-0.925,0.303-1.324c0.202-0.397,0.478-0.737,0.829-1.018
	c0.35-0.281,0.77-0.499,1.26-0.655c0.49-0.156,1.023-0.234,1.598-0.234c0.607,0,1.195,0.082,1.765,0.244
	c0.569,0.163,1.095,0.399,1.579,0.708l-0.913,1.469c-0.623-0.437-1.278-0.655-1.965-0.655c-0.421,0-0.768,0.11-1.041,0.329
	c-0.273,0.218-0.409,0.491-0.409,0.82c0,0.312,0.12,0.594,0.361,0.843c0.24,0.25,0.656,0.602,1.248,1.054
	c0.595,0.438,1.088,0.82,1.479,1.148c0.392,0.329,0.701,0.637,0.928,0.925c0.227,0.289,0.384,0.583,0.47,0.879
	C590.238,401.735,590.282,402.063,590.282,402.421"/>
<path fill="#FFFFFF" d="M600.627,399.665c0-1.28-0.259-2.291-0.778-3.033c-0.518-0.741-1.225-1.113-2.12-1.113
	c-0.942,0-1.688,0.394-2.238,1.183c-0.55,0.789-0.825,1.854-0.825,3.197c0,1.312,0.271,2.343,0.813,3.092
	c0.542,0.751,1.284,1.125,2.227,1.125c0.565,0,1.032-0.143,1.401-0.433c0.369-0.289,0.667-0.655,0.895-1.101
	c0.228-0.445,0.389-0.929,0.483-1.452C600.58,400.606,600.627,400.118,600.627,399.665 M603.897,399.547
	c0,0.92-0.141,1.768-0.423,2.54c-0.282,0.772-0.673,1.447-1.174,2.023c-0.502,0.578-1.095,1.026-1.785,1.346
	c-0.689,0.319-1.432,0.479-2.23,0.479c-0.36,0-0.697-0.031-1.01-0.093c-0.313-0.063-0.61-0.168-0.892-0.316
	c-0.282-0.148-0.56-0.34-0.833-0.575c-0.274-0.234-0.56-0.524-0.857-0.867v7.416h-3.007v-17.546h3.007l0.016,1.707
	c0.547-0.686,1.141-1.189,1.781-1.509c0.641-0.319,1.383-0.479,2.227-0.479c0.766,0,1.464,0.145,2.097,0.433
	c0.632,0.288,1.18,0.69,1.641,1.205c0.46,0.516,0.816,1.131,1.067,1.849C603.772,397.878,603.897,398.674,603.897,399.547"/>
<rect x="605.236" y="388.477" fill="#FFFFFF" width="3.086" height="17.169"/>
<path fill="#FFFFFF" d="M618.415,405.651l-0.008-1.567c-0.594,0.656-1.203,1.129-1.827,1.418c-0.625,0.289-1.352,0.433-2.18,0.433
	c-0.922,0-1.699-0.183-2.332-0.549c-0.633-0.368-1.09-0.911-1.371-1.629c-0.078-0.171-0.137-0.352-0.176-0.539
	c-0.039-0.187-0.075-0.402-0.106-0.645c-0.031-0.242-0.051-0.52-0.059-0.832c-0.008-0.312-0.012-0.696-0.012-1.149v-6.656h3.086
	v6.702c0,0.595,0.027,1.047,0.082,1.359c0.055,0.313,0.153,0.594,0.295,0.843c0.36,0.657,0.995,0.985,1.904,0.985
	c1.16,0,1.959-0.484,2.398-1.453c0.11-0.25,0.188-0.527,0.235-0.832c0.047-0.304,0.07-0.738,0.07-1.3v-6.304h3.086v11.715H618.415z"
	/>
<path fill="#FFFFFF" d="M631.724,405.646v-6.685c0-0.592-0.028-1.044-0.082-1.355c-0.055-0.312-0.153-0.592-0.293-0.841
	c-0.361-0.654-0.996-0.982-1.905-0.982c-0.58,0-1.078,0.121-1.493,0.362c-0.416,0.242-0.725,0.596-0.928,1.064
	c-0.111,0.265-0.185,0.549-0.224,0.852c-0.039,0.305-0.059,0.729-0.059,1.274v6.311h-3.112v-11.688h3.112l0.006,1.566
	c0.594-0.655,1.203-1.129,1.828-1.417c0.625-0.289,1.352-0.434,2.18-0.434c0.922,0,1.7,0.191,2.333,0.573
	c0.632,0.382,1.089,0.923,1.371,1.625c0.062,0.172,0.118,0.347,0.164,0.526c0.047,0.18,0.086,0.386,0.118,0.62
	c0.031,0.234,0.051,0.51,0.059,0.831c0.007,0.319,0.012,0.705,0.012,1.157v6.641H631.724z"/>
<polygon fill="#FFFFFF" points="644.708,405.883 640.054,399.427 640.054,405.649 636.941,405.649 636.941,388.48 640.054,388.48 
	640.054,398.561 640.381,398.561 644.521,393.766 646.86,394.772 642.883,399.029 647.586,404.877 "/>
<polygon fill="#FFFFFF" points="695.34,391.426 694.793,391.426 694.793,392.961 694.436,392.961 694.436,391.426 693.892,391.426 
	693.892,391.19 695.34,391.19 "/>
<path fill="#FFFFFF" d="M697.476,392.961h-0.346v-0.977c0-0.078,0.004-0.214,0.014-0.411c-0.044,0.133-0.092,0.259-0.145,0.378
	l-0.442,1.01h-0.16l-0.431-1.01c-0.028-0.066-0.074-0.191-0.136-0.378c0.008,0.152,0.013,0.289,0.013,0.411v0.977h-0.284v-1.771
	h0.402l0.553,1.306l0.575-1.306h0.387V392.961z"/>
<g>
	<path fill="#FFFFFF" d="M661.098,399.545c0,1.825-0.531,3.347-1.594,4.564c-1.062,1.217-2.398,1.826-4.006,1.826
		c-0.734,0-1.367-0.138-1.898-0.411c-0.531-0.274-1.094-0.756-1.688-1.444v1.568h-3.011v-17.17h3.011v7.177
		c1.047-1.322,2.383-1.984,4.008-1.984c1.546,0,2.796,0.543,3.749,1.627C660.621,396.381,661.098,397.797,661.098,399.545z
		 M657.816,399.658c0-1.28-0.257-2.29-0.77-3.032c-0.513-0.741-1.213-1.112-2.1-1.112c-0.918,0-1.653,0.398-2.205,1.194
		c-0.553,0.796-0.829,1.857-0.829,3.185c0,1.296,0.269,2.322,0.806,3.08c0.537,0.757,1.271,1.135,2.205,1.135
		c0.778,0,1.399-0.297,1.867-0.89C657.474,402.359,657.816,401.173,657.816,399.658z"/>
	<path fill="#FFFFFF" d="M672.411,405.647h-3.276c-0.171-0.484-0.266-1.006-0.281-1.568c-1.03,1.237-2.278,1.855-3.744,1.855
		c-0.936,0-1.732-0.324-2.388-0.972c-0.655-0.647-0.983-1.456-0.983-2.423c0-1.404,0.712-2.529,2.136-3.371
		c0.814-0.483,1.854-0.874,3.122-1.171c0.517-0.125,1.166-0.273,1.948-0.445c-0.313-1.404-1.104-2.107-2.371-2.107
		c-0.971,0-1.958,0.42-2.959,1.261l-1.01-1.448c1.357-1.059,2.901-1.589,4.633-1.589c1.84,0,3.15,0.531,3.931,1.591
		c0.296,0.405,0.499,0.826,0.608,1.263c0.109,0.499,0.164,1.255,0.164,2.269v3.134C671.94,403.565,672.096,404.804,672.411,405.647z
		 M668.945,400.43v-1.126c-0.251,0.063-0.666,0.164-1.245,0.305c-1.989,0.484-2.984,1.321-2.984,2.509
		c0,0.501,0.151,0.914,0.456,1.243c0.303,0.328,0.681,0.493,1.133,0.493c0.56,0,1.075-0.188,1.542-0.563
		c0.405-0.328,0.678-0.719,0.818-1.172C668.867,401.509,668.96,400.945,668.945,400.43z"/>
	<path fill="#FFFFFF" d="M681.545,402.422c0,1.031-0.414,1.874-1.242,2.529c-0.827,0.655-1.881,0.983-3.161,0.983
		c-1.437,0-2.732-0.454-3.888-1.361l1.007-1.642c0.921,0.784,1.757,1.176,2.506,1.176c0.5,0,0.902-0.129,1.207-0.386
		s0.456-0.604,0.456-1.042c0-0.375-0.125-0.71-0.374-1.006c-0.249-0.297-0.795-0.749-1.638-1.357
		c-0.843-0.609-1.412-1.077-1.708-1.404c-0.531-0.608-0.796-1.279-0.796-2.013c0-0.952,0.375-1.728,1.123-2.329
		c0.748-0.601,1.708-0.901,2.877-0.901c1.217,0,2.332,0.319,3.345,0.958l-0.914,1.471c-0.625-0.435-1.281-0.652-1.967-0.652
		c-0.422,0-0.769,0.109-1.043,0.328c-0.273,0.218-0.41,0.492-0.41,0.819c0,0.468,0.539,1.1,1.618,1.896
		c1.204,0.89,2.004,1.589,2.402,2.096C681.346,401.092,681.545,401.705,681.545,402.422z"/>
	<path fill="#FFFFFF" d="M693.28,399.701c0,0.031-0.101,0.094-0.305,0.187c-0.203,0.094-0.304,0.164-0.304,0.21h-7.054
		c0.016,1.187,0.355,2.123,1.018,2.81c0.664,0.688,1.526,1.031,2.588,1.031c1,0,2.014-0.312,3.045-0.936l0.866,1.618
		c-1.545,0.876-3.066,1.314-4.563,1.314c-1.716,0-3.136-0.531-4.26-1.592c-1.295-1.217-1.942-2.793-1.942-4.728
		c0-1.779,0.577-3.23,1.733-4.353c1.092-1.061,2.482-1.592,4.167-1.592c2.123,0,3.575,0.858,4.355,2.571
		C693.046,397.161,693.265,398.314,693.28,399.701z M690.523,398.525c0-0.14-0.008-0.327-0.024-0.56
		c-0.127-1.758-0.885-2.637-2.276-2.637c-1.642,0-2.512,1.066-2.606,3.197H690.523z"/>
</g>
</svg>
