<svg xmlns="http://www.w3.org/2000/svg" xmlns:xlink="http://www.w3.org/1999/xlink" viewBox="0 0 100 100" preserveAspectRatio="none">
        <rect fill="#ccc" width="100" height="100"/>
        <line stroke="#999" x1="0" y1="0" x2="100" y2="100" stroke-width="2"/>
        <line stroke="#999" x1="0" y1="100" x2="100" y2="0" stroke-width="2"/>


    <symbol id="search" class="fill" viewBox="0 0 1024 1024">
        <path d="M621.668 653.668c-44.476 31.692-98.895 50.332-157.668 50.332-150.221 0-272-121.779-272-272s121.779-272 272-272c150.221 0 272 121.779 272 272 0 58.773-18.641 113.192-50.332 157.668l178.714 178.714c17.606 17.606 17.46 45.778-0.006 63.244l-0.75 0.75c-17.421 17.421-45.781 17.469-63.244 0.006l-178.714-178.714zM464 640c114.875 0 208-93.125 208-208s-93.125-208-208-208c-114.875 0-208 93.125-208 208s93.125 208 208 208v0z"/>
    </symbol>

    <symbol id="menu" class="fill" viewBox="0 0 1024 1024">
        <path d="M64 192h896v192h-896zM64 448h896v192h-896zM64 704h896v192h-896z"/>
    </symbol>

    <symbol id="dropdown" class="fill" viewBox="0 0 24 24">
        <path d="M6.3,9.3l5.5,5.5c0.1,0.1,0.2,0.1,0.3,0l5.5-5.5c0.1-0.1,0-0.3-0.1-0.3h-11C6.3,9,6.2,9.2,6.3,9.3z"/>
    </symbol>

    <symbol id="user" class="fill" viewBox="0 0 24 24">
        <path d="m11.5 20.722c-3.9 0-6.3-0.122-7.2-1.322-0.3-0.6-0.3-2.1 0.3-2.8 0.5-0.5 3.2-2 4.7-2.7 0.2-0.1 0.4-0.4 0.4-0.6v-0.5c0-0.4-0.8-1.1-1-1.3-1.8-2.5-1.3-5.6-0.4-6.7 0.6-0.8 1.4-1.8 3.4-1.8h0.3c1.9 0 2.7 1 3.3 1.8 0.9 1.2 1.4 4.3-0.4 6.6-0.2 0.2-1 0.9-1 1.3v0.5c0 0.2 0.2 0.5 0.4 0.6 1.5 0.7 4.2 2.3 4.7 2.7 0.7 0.7 0.7 2.2 0.3 2.7-0.8 1.3-3.3 1.5-7.2 1.5h-0.6z"/>
    </symbol>

    <symbol id="arrow-left" class="stroke" viewBox="6 -18 60 60">
        <polyline stroke-width="2" stroke-miterlimit="10" points="45.4,-8 26.6,12 45.4,32"/>
    </symbol>

    <symbol id="support" class="fill" viewBox="0 0 1024 1024">
        <path d="M512 20.48c-271.462 0-491.52 220.058-491.52 491.52s220.058 491.52 491.52 491.52c271.411 0 491.52-220.058 491.52-491.571 0-271.411-220.109-491.469-491.52-491.469zM504.269 798.669h-2.611c-40.038-1.178-68.301-30.72-67.123-70.195 1.126-38.81 30.054-67.021 68.762-67.021l2.355 0.102c41.165 1.178 69.12 30.413 67.942 71.014-1.178 38.912-29.594 66.099-69.325 66.099zM672.768 464.282c-9.421 13.312-30.106 30.003-56.218 50.33l-28.774 19.814c-15.77 12.288-25.293 23.91-28.826 35.226-2.867 8.909-4.198 11.315-4.454 29.491v4.608h-109.824l0.307-9.318c1.382-38.093 2.304-60.621 18.125-79.206 24.832-29.082 79.616-64.41 81.92-65.894 7.885-5.888 14.49-12.595 19.405-19.814 11.52-15.923 16.589-28.416 16.589-40.602 0-17.101-5.018-32.922-15.002-46.899-9.626-13.619-27.904-20.378-54.323-20.378-26.214 0-44.186 8.294-54.886 25.395-11.059 17.459-16.64 35.84-16.64 54.63v4.71h-113.203l0.205-4.915c2.918-69.274 27.699-119.194 73.472-148.326 28.826-18.483 64.717-27.853 106.547-27.853 54.682 0 100.966 13.312 137.318 39.526 36.915 26.573 55.603 66.406 55.603 118.323-0.051 29.030-9.216 56.32-27.341 81.152z"/>
    </symbol>

    <symbol id="splunkbase-logo" class="fill" viewBox="0 0 115.5 23">
        <path d="M8.3,13.9c0,0.5-0.1,1-0.3,1.4c-0.2,0.4-0.5,0.8-0.9,1.1c-0.4,0.3-0.9,0.5-1.4,0.7s-1.1,0.3-1.8,0.3c-0.8,0-1.5-0.1-2.1-0.3c-0.6-0.2-1.2-0.6-1.8-1l1-1.6c0.5,0.4,0.9,0.7,1.3,0.9c0.4,0.2,0.8,0.3,1.2,0.3c0.5,0,0.9-0.1,1.2-0.4s0.5-0.6,0.5-1c0-0.2,0-0.4-0.1-0.5c-0.1-0.2-0.2-0.3-0.3-0.5c-0.1-0.2-0.3-0.4-0.6-0.6c-0.3-0.2-0.6-0.5-1-0.7c-0.3-0.2-0.6-0.4-0.9-0.7C2,11,1.7,10.7,1.5,10.4C1.2,10.2,1,9.9,0.9,9.5C0.7,9.2,0.7,8.8,0.7,8.4c0-0.5,0.1-0.9,0.3-1.3c0.2-0.4,0.5-0.7,0.8-1c0.3-0.3,0.8-0.5,1.3-0.7s1-0.2,1.6-0.2c0.6,0,1.2,0.1,1.8,0.2C7,5.6,7.5,5.8,8,6.1L7.1,7.6C6.5,7.2,5.8,7,5.1,7c-0.4,0-0.8,0.1-1,0.3C3.8,7.5,3.7,7.8,3.7,8.1C3.7,8.4,3.8,8.7,4,9C4.3,9.2,4.7,9.6,5.3,10c0.6,0.4,1.1,0.8,1.5,1.1c0.4,0.3,0.7,0.6,0.9,0.9c0.2,0.3,0.4,0.6,0.5,0.9C8.2,13.3,8.3,13.6,8.3,13.9"/>
        <path d="M18.6,11.2c0-1.3-0.3-2.3-0.8-3C17.3,7.4,16.6,7,15.7,7c-0.9,0-1.7,0.4-2.2,1.2s-0.8,1.9-0.8,3.2c0,1.3,0.3,2.3,0.8,3.1c0.5,0.8,1.3,1.1,2.2,1.1c0.6,0,1-0.1,1.4-0.4c0.4-0.3,0.7-0.7,0.9-1.1c0.2-0.4,0.4-0.9,0.5-1.5C18.6,12.1,18.6,11.6,18.6,11.2M21.9,11.1c0,0.9-0.1,1.8-0.4,2.5s-0.7,1.4-1.2,2c-0.5,0.6-1.1,1-1.8,1.3c-0.7,0.3-1.4,0.5-2.2,0.5c-0.4,0-0.7,0-1-0.1c-0.3-0.1-0.6-0.2-0.9-0.3c-0.3-0.1-0.6-0.3-0.8-0.6c-0.3-0.2-0.6-0.5-0.9-0.9V23h-3V5.5h3l0,1.7c0.5-0.7,1.1-1.2,1.8-1.5c0.6-0.3,1.4-0.5,2.2-0.5c0.8,0,1.5,0.1,2.1,0.4c0.6,0.3,1.2,0.7,1.6,1.2c0.5,0.5,0.8,1.1,1.1,1.8C21.8,9.4,21.9,10.2,21.9,11.1"/>
        <rect x="23.2" width="3.1" height="17.2"/>
        <path d="M36.4,17.2l0-1.6c-0.6,0.7-1.2,1.1-1.8,1.4c-0.6,0.3-1.4,0.4-2.2,0.4c-0.9,0-1.7-0.2-2.3-0.5c-0.6-0.4-1.1-0.9-1.4-1.6c-0.1-0.2-0.1-0.4-0.2-0.5s-0.1-0.4-0.1-0.6c0-0.2-0.1-0.5-0.1-0.8s0-0.7,0-1.1V5.5h3.1v6.7c0,0.6,0,1,0.1,1.4c0.1,0.3,0.2,0.6,0.3,0.8c0.4,0.7,1,1,1.9,1c1.2,0,2-0.5,2.4-1.5c0.1-0.2,0.2-0.5,0.2-0.8c0-0.3,0.1-0.7,0.1-1.3V5.5h3.1v11.7L36.4,17.2L36.4,17.2z"/>
        <path d="M49.7,17.2v-6.7c0-0.6,0-1-0.1-1.4c-0.1-0.3-0.2-0.6-0.3-0.8c-0.4-0.7-1-1-1.9-1c-0.6,0-1.1,0.1-1.5,0.4c-0.4,0.2-0.7,0.6-0.9,1.1c-0.1,0.3-0.2,0.5-0.2,0.9c0,0.3-0.1,0.7-0.1,1.3v6.3h-3.1V5.5h3.1l0,1.6c0.6-0.7,1.2-1.1,1.8-1.4c0.6-0.3,1.4-0.4,2.2-0.4c0.9,0,1.7,0.2,2.3,0.6c0.6,0.4,1.1,0.9,1.4,1.6c0.1,0.2,0.1,0.3,0.2,0.5c0,0.2,0.1,0.4,0.1,0.6c0,0.2,0.1,0.5,0.1,0.8c0,0.3,0,0.7,0,1.2v6.6H49.7z"/>
        <polygon points="62.7,17.4 58.1,11 58.1,17.2 54.9,17.2 54.9,0 58.1,0 58.1,10.1 58.4,10.1 62.5,5.3 64.9,6.3 60.9,10.6 65.6,16.4"/>
        <polygon points="113.3,2.9 112.8,2.9 112.8,4.5 112.4,4.5 112.4,2.9 111.9,2.9 111.9,2.7 113.3,2.7"/>
        <path d="M115.5,4.5h-0.3v-1c0-0.1,0-0.2,0-0.4c0,0.1-0.1,0.3-0.1,0.4l-0.4,1h-0.2l-0.4-1c0-0.1-0.1-0.2-0.1-0.4c0,0.2,0,0.3,0,0.4v1h-0.3V2.7h0.4l0.6,1.3l0.6-1.3h0.4L115.5,4.5L115.5,4.5z"/>
        <path d="M79.1,11.1c0,1.8-0.5,3.3-1.6,4.6c-1.1,1.2-2.4,1.8-4,1.8c-0.7,0-1.4-0.1-1.9-0.4c-0.5-0.3-1.1-0.8-1.7-1.4v1.6h-3V0h3v7.2c1-1.3,2.4-2,4-2c1.5,0,2.8,0.5,3.7,1.6C78.6,7.9,79.1,9.3,79.1,11.1z M75.8,11.2c0-1.3-0.3-2.3-0.8-3C74.5,7.4,73.8,7,72.9,7c-0.9,0-1.7,0.4-2.2,1.2c-0.6,0.8-0.8,1.9-0.8,3.2c0,1.3,0.3,2.3,0.8,3.1c0.5,0.8,1.3,1.1,2.2,1.1c0.8,0,1.4-0.3,1.9-0.9C75.5,13.9,75.8,12.7,75.8,11.2z"/>
        <path d="M90.4,17.2h-3.3c-0.2-0.5-0.3-1-0.3-1.6c-1,1.2-2.3,1.9-3.7,1.9c-0.9,0-1.7-0.3-2.4-1c-0.7-0.6-1-1.5-1-2.4c0-1.4,0.7-2.5,2.1-3.4c0.8-0.5,1.9-0.9,3.1-1.2c0.5-0.1,1.2-0.3,1.9-0.4C86.6,7.7,85.8,7,84.6,7c-1,0-2,0.4-3,1.3l-1-1.4c1.4-1.1,2.9-1.6,4.6-1.6c1.8,0,3.2,0.5,3.9,1.6c0.3,0.4,0.5,0.8,0.6,1.3c0.1,0.5,0.2,1.3,0.2,2.3v3.1C89.9,15.1,90.1,16.3,90.4,17.2z M86.9,12v-1.1c-0.3,0.1-0.7,0.2-1.2,0.3c-2,0.5-3,1.3-3,2.5c0,0.5,0.2,0.9,0.5,1.2c0.3,0.3,0.7,0.5,1.1,0.5c0.6,0,1.1-0.2,1.5-0.6c0.4-0.3,0.7-0.7,0.8-1.2C86.9,13,87,12.5,86.9,12z"/>
        <path d="M99.5,13.9c0,1-0.4,1.9-1.2,2.5c-0.8,0.7-1.9,1-3.2,1c-1.4,0-2.7-0.5-3.9-1.4l1-1.6c0.9,0.8,1.8,1.2,2.5,1.2c0.5,0,0.9-0.1,1.2-0.4s0.5-0.6,0.5-1c0-0.4-0.1-0.7-0.4-1c-0.2-0.3-0.8-0.7-1.6-1.4c-0.8-0.6-1.4-1.1-1.7-1.4c-0.5-0.6-0.8-1.3-0.8-2c0-1,0.4-1.7,1.1-2.3s1.7-0.9,2.9-0.9c1.2,0,2.3,0.3,3.3,1l-0.9,1.5c-0.6-0.4-1.3-0.7-2-0.7c-0.4,0-0.8,0.1-1,0.3c-0.3,0.2-0.4,0.5-0.4,0.8c0,0.5,0.5,1.1,1.6,1.9c1.2,0.9,2,1.6,2.4,2.1C99.3,12.6,99.5,13.2,99.5,13.9z"/>
        <path d="M111.3,11.2c0,0-0.1,0.1-0.3,0.2c-0.2,0.1-0.3,0.2-0.3,0.2h-7.1c0,1.2,0.4,2.1,1,2.8c0.7,0.7,1.5,1,2.6,1c1,0,2-0.3,3-0.9l0.9,1.6c-1.5,0.9-3.1,1.3-4.6,1.3c-1.7,0-3.1-0.5-4.3-1.6c-1.3-1.2-1.9-2.8-1.9-4.7c0-1.8,0.6-3.2,1.7-4.4c1.1-1.1,2.5-1.6,4.2-1.6c2.1,0,3.6,0.9,4.4,2.6C111,8.7,111.3,9.8,111.3,11.2z M108.5,10c0-0.1,0-0.3,0-0.6c-0.1-1.8-0.9-2.6-2.3-2.6c-1.6,0-2.5,1.1-2.6,3.2H108.5z"/>
    </symbol>

    <symbol id="splunkbase-ba" viewBox="2 -2 76 76">
        <path d="M40 2c18.7 0 34 15.3 34 34S58.7 70 40 70 6 54.7 6 36 21.3 2 40 2m0-2C20.1 0 4 16.1 4 36s16.1 36 36 36 36-16.1 36-36S59.9 0 40 0z"/>
        <path d="M45.9 31.4l-5.7-5.6 11.9-6.3z"/>
        <path d="M47.1 25L33.7 38.4l-11.1-9-15.9 19M23 46v21m22-18v22M34 56v15m22-16v12"/>
    </symbol>

    <symbol id="splunk-logo" class="fill" viewBox="0 0 24 24">
        <polygon points="5.5,21 5.5,17.7 17.1,12 5.5,6.4 5.5,3 20.5,10.5 20.5,13.6"/>
    </symbol>

    <symbol id="splunk-built-by" viewBox="0 0 54 72">
        <path fill="#48569E" d="M52.5,55.3l-22.2,15c-1.5,1-3.4,1-4.9,0l-22.9-15C1.2,54.5,0,53.1,0,51.6V4c0-2.2,1.8-4,4-4h46c2.2,0,4,1.8,4,4v47.6C54,53.1,53.7,54.5,52.5,55.3z" />
        <path fill="#FFFFFF" d="M18.8,45.5c0,0,11.5-11.5,12.1-12.1c0.6-0.6,1.6-0.6,2-0.5c3.2,0.8,6.8,0,9.3-2.5 c2.8-2.8,3.5-7,2.2-10.5l-4.9,4.9c-0.8,0.8-2,0.8-2.8,0L34,22.1c-0.8-0.8-0.8-2,0-2.8l4.9-4.9c-3.5-1.4-7.6-0.7-10.5,2.2c-2.4,2.4-3.3,5.8-2.6,9C26,26,26,27.3,25.3,28c-0.6,0.6-12,12-12,12c-1.5,1.5-1.5,4,0,5.5C14.8,47.1,17.3,47.1,18.8,45.5z" />
    </symbol>

    <symbol id="splunk-certified" viewBox="0 0 54 72">
        <path fill="#5CC05C" d="M52.5,55.3l-22.2,15c-1.5,1-3.4,1-4.9,0l-22.9-15C1.2,54.5,0,53.1,0,51.6V4c0-2.2,1.8-4,4-4h46c2.2,0,4,1.8,4,4v47.6C54,53.1,53.7,54.5,52.5,55.3z" />
        <polygon fill="#FFFFFF" points="15.8,46.5 15.8,40.7 36.1,30.8 15.8,20.9 15.8,15 42,28.1 42,33.5" />
    </symbol>

</svg>